<?xml version="1.0" encoding="utf-8"?>
<!-- Generator: Adobe Illustrator 24.0.1, SVG Export Plug-In . SVG Version: 6.00 Build 0)  -->
<svg version="1.1" id="Layer_1" xmlns="http://www.w3.org/2000/svg" xmlns:xlink="http://www.w3.org/1999/xlink" x="0px" y="0px"
	 viewBox="0 0 150 25" style="enable-background:new 0 0 150 25;" xml:space="preserve">
<style type="text/css">
	.st0{fill:#EA7923;}
	.st1{fill:#282560;}
	.st2{fill:none;stroke:#272660;stroke-width:0.4103;stroke-miterlimit:10;}
	.st3{fill:#292561;stroke:#292561;stroke-width:0.3673;stroke-miterlimit:10;}
	.st4{fill:#EB7A24;stroke:#EB7A24;stroke-width:0.3673;stroke-miterlimit:10;}
</style>
<g>
	<g id="Layer_1_1_">
	</g>
	<g id="Layer_2_1_">
		<g>
			<g>
				<path class="st0" d="M22.1,18.5c0,0-0.3,0.5-0.8,1c-0.3,0.3-0.5,0.5-0.8,0.8c0,0,0,0-0.1,0.1l0,0c-2,1.8-4.5,2.7-7.3,2.6
					C8,22.9,3.9,19.5,2.8,14.6C1.8,10.8,3.5,6.9,6.9,5c3.2-1.9,7.2-1.5,10.1,0.9c0.1,0.1,0.3,0.2,0.4,0.4c0.1,0.1,0.2,0.2,0.3,0.2
					l0,0l0,0l0.2,0.2l-0.5-0.3c-0.2-0.1-0.4-0.3-0.6-0.3C14.8,4.9,12.6,5,10.3,6c-2.6,1.2-4.1,3.4-4.1,6.3c-0.1,3.8,1.7,6.7,5.2,8.3
					c3.2,1.5,6.3,1.2,9.1-0.8l0.4-0.3c0.1,0,0.1-0.1,0.2-0.1L22.1,18.5z"/>
				<path class="st1" d="M4.3,6.5c0,0,0.3-0.5,0.9-1C5.4,5.2,5.7,4.9,6,4.7c0,0,0.1-0.1,0.1-0.1l0,0c2.1-1.8,4.6-2.7,7.4-2.6
					c5.2,0.1,9.3,3.5,10.5,8.4c0.9,3.8-0.8,7.7-4.2,9.6c-3.3,1.8-7.4,1.4-10.3-1c-0.1-0.1-0.3-0.2-0.4-0.4c-0.1-0.1-0.2-0.2-0.3-0.2
					l0,0l0,0l-0.2-0.2l0.5,0.3c0.2,0.1,0.4,0.3,0.6,0.4C11.7,20,14,20,16.3,19c2.7-1.2,4.1-3.4,4.2-6.3c0.1-3.8-1.7-6.7-5.2-8.3
					C12,2.9,8.8,3.2,6,5.1L5.5,5.5c-0.1,0-0.1,0.1-0.2,0.1L4.3,6.5z"/>
				<g>
					<polyline class="st2" points="12.7,13.2 10.6,15.3 7.6,12.4 10.6,9.4 13.5,12.4 					"/>
					<polyline class="st2" points="14.1,13.2 16.2,15.3 19.1,12.4 16.2,9.5 13.2,12.4 					"/>
				</g>
			</g>
			<g>
				<g>
					<path class="st3" d="M36.3,13.4c0,1.2-0.3,2.1-0.9,2.9c-0.4,0.5-1,0.9-1.7,1.1c-0.4,0.1-0.9,0.2-1.5,0.2
						c-0.9,0-1.7-0.1-2.2-0.4c-0.4-0.2-0.7-0.4-0.9-0.7c-0.6-0.7-0.9-1.6-0.9-2.9c0-0.5,0.1-1,0.2-1.5c0.2-0.5,0.5-1,0.8-1.4
						s0.9-0.7,1.5-1c0.5-0.2,1-0.3,1.6-0.3c0.8,0,1.5,0.1,2,0.3c0.5,0.2,0.9,0.5,1.2,0.9C36,11.4,36.3,12.3,36.3,13.4z M35,13.7
						c0-0.6,0-1.1-0.2-1.4c-0.1-0.4-0.3-0.9-0.6-1.3c-0.3-0.3-0.6-0.6-1-0.7c-0.4-0.2-0.8-0.3-1.3-0.3c-0.5,0-0.9,0.1-1.2,0.3
						c-0.4,0.3-0.7,0.6-0.9,1.1c-0.2,0.5-0.3,1.2-0.3,2c0,1.1,0.2,2,0.6,2.7c0.2,0.4,0.6,0.7,1.1,1c0.4,0.2,0.8,0.3,1.3,0.3
						c0.5,0,1-0.1,1.4-0.5c0.3-0.2,0.6-0.6,0.9-1.2C34.9,15.1,35,14.5,35,13.7z"/>
					<path class="st3" d="M45.2,17.5C45.2,17.5,45.1,17.6,45.2,17.5L43,17.6c-0.1,0-0.2,0-0.2-0.1c-0.2-0.2-0.7-0.8-1.5-1.8
						c-0.4-0.5-0.7-1-1-1.6c0-0.1-0.1-0.1-0.1-0.1c-0.2,0-0.5-0.1-0.8-0.1c-0.1,0-0.1,0-0.1,0.1c0-0.1,0,0.1,0,0.6
						c0,0.4,0,0.9,0,1.3c0,0.9,0.1,1.3,0.3,1.3h1c0,0,0.1,0,0.1,0.1v0.3c0,0,0,0.1,0,0.1l-3.3,0c0,0-0.1,0-0.1-0.1v-0.3
						c0,0,0-0.1,0.1-0.1H38c0.1,0,0.1-0.1,0.1-0.2l0-3.1v-2.3c0-1.1-0.1-1.6-0.2-1.6h-0.7c0,0-0.1,0-0.1-0.1V9.7c0,0,0-0.1,0-0.1
						l1.8,0c0.6,0,1.1,0,1.4,0c0.3,0,0.6,0,0.8,0.1c0.6,0.1,1,0.3,1.4,0.6c0.4,0.4,0.6,0.8,0.6,1.4c0,0.6-0.2,1.1-0.6,1.6
						c-0.2,0.2-0.6,0.4-1.1,0.6c0,0,0,0,0,0.1c0.3,0.6,0.8,1.2,1.2,1.7c0.4,0.4,0.6,0.6,0.7,0.8c0.3,0.3,0.5,0.5,0.7,0.6
						c0.3,0.2,0.5,0.3,0.9,0.3c0.1,0,0.1,0,0.1,0.1L45.2,17.5z M42.1,11.9c0-0.5-0.2-0.9-0.5-1.3c-0.5-0.4-1.1-0.6-2-0.6
						c-0.1,0-0.2,0-0.2,0.1c0,1.1,0,1.8,0,2v1.3c0,0.1,0,0.1,0.1,0.1c0.2,0,0.4,0,0.7,0c0.4,0,0.7,0,0.9-0.1
						C41.7,13.2,42.1,12.7,42.1,11.9z"/>
					<path class="st3" d="M54.1,14.1C54.1,14.1,54,14.2,54.1,14.1l-0.8,0.1c0,0-0.1,0-0.1,0.1c0,0,0,0.1,0,0.4c0,0.3,0,0.6,0,0.9
						c0,0.6,0,1,0,1.2c0,0.1,0,0.1-0.1,0.1c-0.2,0.1-0.4,0.2-0.7,0.3c-1,0.4-1.8,0.5-2.5,0.5s-1.4-0.1-1.9-0.3
						c-0.7-0.3-1.2-0.6-1.6-1.2c-0.4-0.6-0.6-1.3-0.6-2.4c0-1.1,0.3-2,1-2.8c0.5-0.6,1.3-1,2.3-1.3c0.4-0.1,1-0.2,1.7-0.2
						c0.8,0,1.4,0.1,1.9,0.2c0.3,0.1,0.5,0.2,0.6,0.2c0,0,0.1,0.1,0.1,0.1c0,0.2-0.1,0.4-0.1,0.7c0,0.2-0.1,0.5-0.2,0.8
						c0,0,0,0.1-0.1,0.1c-0.1,0-0.1,0-0.1-0.1c0,0,0-0.1-0.1-0.4c0-0.2-0.2-0.4-0.3-0.5c-0.6-0.4-1.3-0.7-2.3-0.7
						c-0.8,0-1.6,0.4-2.3,1.1c-0.5,0.6-0.8,1.4-0.8,2.5c0,1.2,0.3,2.1,0.9,2.6c0.6,0.6,1.5,1,2.5,1c0.6,0,1.1-0.2,1.3-0.6
						c0,0,0-0.1,0-0.2v-0.8c0-0.4,0-0.6,0-0.8c0-0.5-0.1-0.7-0.1-0.7h-1.2c0,0-0.1,0-0.1-0.1v-0.2c0-0.1,0-0.1,0.1-0.1
						c0,0,0.3,0,0.8,0c0.5,0,0.8,0,0.9,0s0.4,0,0.9,0c0.5,0,0.8,0,0.8,0c0.1,0,0.1,0,0.1,0.1L54.1,14.1z"/>
					<path class="st3" d="M62.3,17.5C62.3,17.6,62.3,17.6,62.3,17.5l-2.9,0.1c0,0,0,0,0-0.1v-0.2c0-0.1,0-0.1,0.1-0.1h0.7
						c0.1,0,0.1,0,0.1-0.1c0,0,0,0,0,0c0-0.1-0.2-0.5-0.4-1.1c-0.3-0.7-0.4-1.1-0.4-1.1c0-0.1-0.1-0.1-0.1-0.1l-2.8,0
						c0,0-0.1,0-0.1,0.1c-0.2,0.6-0.4,1-0.5,1.5c-0.1,0.3-0.2,0.5-0.2,0.8c0,0.1,0,0.2,0.1,0.2h0.9c0,0,0.1,0,0.1,0.1v0.2
						c0,0,0,0.1-0.1,0.1h-2.5c0,0-0.1,0-0.1-0.1v-0.3c0,0,0-0.1,0-0.1h0.4c0.1,0,0.2-0.1,0.3-0.4c0.5-1.1,0.9-2.2,1.4-3.3
						c0.9-2,1.4-3.2,1.5-3.4c0.1-0.2,0.2-0.4,0.3-0.6c0-0.1,0.1-0.2,0.1-0.2c0.2,0,0.4-0.1,0.7-0.1c0,0,0.1,0,0.1,0
						c0,0,0.1,0,0.1,0.1s0,0.1,0,0.1c0,0,0,0.1-0.1,0.1c0,0-0.1,0.1-0.1,0.2C59,9.7,59,9.7,59,9.8s0,0.2,0.1,0.4
						c0.1,0.3,0.3,0.8,0.6,1.6c0,0.1,0.3,0.8,0.7,2.1c0.4,1.1,0.8,2,1,2.6c0.2,0.4,0.4,0.7,0.5,0.7h0.4c0,0,0,0,0,0.1V17.5z
						 M59.2,14.2c0-0.1-0.2-0.6-0.5-1.5c-0.1-0.4-0.3-0.9-0.4-1.4c0-0.1-0.1-0.2-0.1-0.2s-0.1,0.1-0.2,0.2c-0.2,0.4-0.3,0.8-0.5,1.2
						c-0.2,0.5-0.5,1.1-0.7,1.7c0,0.1,0,0.1,0,0.1c0,0,0,0,0,0L59.2,14.2C59.2,14.3,59.2,14.3,59.2,14.2z"/>
					<path class="st3" d="M71.6,10C71.6,10,71.6,10.1,71.6,10l-0.9,0.1c-0.1,0-0.1,0.1-0.1,0.1c0,0,0,0.6,0,1.6s0,1.6,0,1.6
						s0,0.8,0,2.1c0,1.3,0,2,0,2.1c0,0.2,0,0.3-0.1,0.3c-0.1,0-0.2,0-0.3-0.1c-1.1-1.3-2.2-2.6-3.3-4c-0.6-0.8-1.3-1.6-2.1-2.6
						c-0.1-0.1-0.1,0-0.1,0.1c0,0.1-0.1,0.7-0.1,2c0,1.3-0.1,2.1-0.1,2.4c0,1,0.1,1.6,0.3,1.6h0.7c0.1,0,0.1,0,0.1,0v0.3
						c0,0,0,0-0.1,0h-2.4c0,0-0.1,0-0.1,0v-0.3c0,0,0-0.1,0.1-0.1h0.7c0.1,0,0.1,0,0.1-0.1v-0.8c0-0.2,0-1.1,0.1-2.7
						c0.1-1.6,0.1-2.4,0.1-2.4c0-0.7-0.3-1.1-0.8-1.1h-0.4c0,0,0,0,0-0.1V9.7c0,0,0-0.1,0.1-0.1H65c0.1,0,0.1,0,0.2,0.1
						c0,0.1,0.4,0.5,1,1.3s1,1.3,1.1,1.4c0.8,1,1.7,2,2.6,3.1c0,0,0,0,0.1,0c0,0,0.1-0.1,0.1-0.2c0-0.1,0-0.7,0-1.8
						c0-1.1,0-1.7,0-1.9c-0.1-1.1-0.2-1.7-0.4-1.7h-0.7c-0.1,0-0.1,0-0.1-0.1V9.7c0,0,0-0.1,0.1-0.1h2.7c0.1,0,0.1,0,0.1,0.1
						L71.6,10z"/>
					<path class="st3" d="M80.4,13.5c0,1.2-0.3,2.1-0.9,2.9c-0.4,0.5-1,0.9-1.7,1.1c-0.4,0.1-0.9,0.2-1.5,0.2
						c-0.9,0-1.7-0.1-2.2-0.4c-0.4-0.2-0.7-0.4-0.9-0.7c-0.6-0.7-0.9-1.6-0.9-2.9c0-0.5,0.1-1,0.2-1.5c0.2-0.5,0.4-1,0.8-1.4
						c0.4-0.4,0.9-0.7,1.5-1c0.5-0.2,1-0.3,1.6-0.3c0.8,0,1.5,0.1,2,0.3c0.5,0.2,0.9,0.5,1.2,0.9C80.2,11.5,80.5,12.4,80.4,13.5z
						 M79.1,13.8c0-0.6-0.1-1.1-0.2-1.4c-0.1-0.4-0.3-0.9-0.6-1.3c-0.3-0.3-0.6-0.6-1-0.7c-0.4-0.2-0.8-0.3-1.3-0.3
						c-0.5,0-0.9,0.1-1.2,0.3c-0.4,0.3-0.7,0.6-0.9,1.1c-0.2,0.5-0.3,1.2-0.3,2c0,1.1,0.2,2,0.6,2.7c0.2,0.4,0.6,0.7,1.1,1
						c0.4,0.2,0.8,0.3,1.3,0.3c0.5,0,0.9-0.1,1.4-0.5c0.3-0.2,0.6-0.6,0.9-1.2C79,15.2,79.1,14.6,79.1,13.8z"/>
					<path class="st4" d="M91.5,17.6C91.5,17.6,91.5,17.7,91.5,17.6l-2.9,0c-0.1,0-0.1,0-0.1-0.1v-0.3c0,0,0-0.1,0.1-0.1h0.5
						c0.1,0,0.2,0,0.2-0.1l0-3c0-1.1,0-1.9,0-2.5c0-0.1,0-0.2-0.1-0.2c0,0-0.1,0-0.1,0.1c-0.2,0.4-1,2-2.3,4.8
						c-0.3,0.6-0.5,1-0.6,1.3c0,0.1-0.1,0.1-0.2,0.1c-0.1,0-0.2,0-0.2-0.1c-1-1.9-1.6-3-1.8-3.4c-0.3-0.6-0.7-1.5-1.3-2.6
						c0-0.1-0.1-0.1-0.1-0.1c0,0-0.1,0-0.1,0.1c-0.1,0.8-0.1,1.9-0.1,3.3v1.3c0,0.7,0.1,1,0.3,1h0.6c0,0,0.1,0,0.1,0v0.3
						c0,0,0,0.1,0,0.1h-2.2c-0.1,0-0.1,0-0.1,0v-0.3c0-0.1,0-0.1,0.1-0.1h0.6c0.1,0,0.2-0.1,0.2-0.3c0-0.3,0-1.4,0.1-3.3
						c0-0.5,0.1-1.3,0.1-2.4c0-0.6-0.2-1-0.6-1.1c-0.1-0.1-0.3-0.1-0.5-0.1c0,0-0.1,0-0.1-0.1V9.7c0,0,0-0.1,0.1-0.1h2
						c0.1,0,0.1,0,0.2,0.1c0.2,0.4,0.6,1.1,1.1,2.1c0.1,0.2,0.4,0.9,1,2c0.6,1.2,0.9,1.8,1,1.9s0.1,0.1,0.2,0c0.4-0.9,0.9-1.9,1.4-3
						c0.5-1,1-2,1.5-3.1c0.1-0.1,0.1-0.1,0.2-0.1h1.6c0.1,0,0.1,0,0.1,0.1V10c0,0,0,0.1-0.1,0.1h-0.4c-0.1,0-0.2,0.1-0.2,0.4
						c0,0.3,0,1.2,0,2.8c0,1.2,0,2.1,0,2.7c0,0.9,0.2,1.3,0.4,1.3h0.5c0,0,0.1,0,0.1,0.1L91.5,17.6L91.5,17.6z"/>
					<path class="st4" d="M99,16.6c-0.2,0.3-0.3,0.6-0.6,1c0,0-0.1,0.1-0.1,0.1l-5.8,0c0,0-0.1,0-0.1-0.1v-0.3c0,0,0-0.1,0.1-0.1
						h0.9c0.1,0,0.1,0,0.1,0c0,0,0,0,0-0.1s0-0.6,0-1.8c0-1.1,0-1.7,0-1.8c0,0,0-0.4,0-1.2s0-1.1,0-1.2c0-0.8-0.1-1.2-0.2-1.2h-0.8
						c0,0-0.1,0-0.1-0.1V9.8c0,0,0,0,0,0s0,0,0.1,0l5.5,0c0.1,0,0.2,0,0.3,0s0.2,0,0.2,0c0.1,0,0.1,0,0.1,0.1
						c-0.1,0.3-0.2,0.6-0.3,0.9c0,0.1-0.1,0.1-0.1,0.1c0,0,0,0-0.1-0.1c-0.2-0.2-0.4-0.3-0.7-0.3c-0.8-0.1-1.7-0.2-2.5-0.2
						c-0.1,0-0.1,0-0.1,0.1c0,1.3,0,2.3,0,2.9c0,0.1,0,0.1,0.1,0.1h2.6c0.1,0,0.1,0,0.1-0.1c0-0.2,0.1-0.4,0.1-0.7
						c0-0.1,0-0.1,0.1-0.1h0.2c0.1,0,0.1,0,0.1,0.1c0,0,0,0.2,0,0.5c0,0.3,0,0.5,0,0.6c0,0.1,0,0.3,0,0.6c0,0.4,0,0.5,0,0.6
						c0,0.1,0,0.1-0.1,0.1h-0.3c-0.1,0-0.1,0-0.1-0.1c0-0.2,0-0.5-0.1-0.9c0-0.1,0-0.1-0.1-0.1c0,0-0.5,0-1.3,0c-0.8,0-1.3,0-1.3,0
						c-0.1,0-0.1,0-0.1,0.1V16c0,0.9,0.1,1.4,0.3,1.4c1.7,0,2.9-0.2,3.6-0.6C98.9,16.6,99,16.6,99,16.6C99,16.6,99,16.6,99,16.6
						C99,16.6,99,16.6,99,16.6z"/>
					<path class="st4" d="M106.7,9.8c0,0.2-0.1,0.5-0.2,0.9c0,0.1-0.1,0.1-0.2,0.1c-0.1,0-0.2,0-0.2-0.1c-0.1-0.2-0.2-0.3-0.4-0.3
						c-0.1,0-0.5-0.1-1-0.1c-0.5-0.1-0.9-0.1-1.1-0.1c-0.1,0-0.1,0-0.1,0.1c-0.1,1-0.1,2.8-0.1,5.4c0,1.1,0.1,1.6,0.3,1.6h0.9
						c0,0,0,0,0,0v0.3c0,0,0,0.1,0,0.1l-3.4,0c0,0-0.1,0-0.1-0.1v-0.3c0,0,0-0.1,0.1-0.1h0.9c0.1,0,0.1,0,0.1-0.1c0,0,0-0.2,0-0.6
						c0-0.4,0-0.6,0-0.7c0-0.1,0-0.7,0-2s0-1.9,0-2c0-1.1-0.1-1.7-0.2-1.7c-0.9,0-1.6,0.1-2.2,0.2c-0.1,0-0.3,0.1-0.4,0.3
						c-0.1,0.1-0.2,0.2-0.3,0.2c-0.1,0-0.2,0-0.2-0.1c0,0,0-0.1,0-0.2c0.1-0.3,0.2-0.7,0.3-0.9c0-0.1,0.1-0.1,0.1-0.1
						c0.1,0,0.6,0,1.4,0.1c1,0,1.6,0.1,1.9,0.1c1.1,0,2.2,0,3.2,0c0.1,0,0.2,0,0.3,0C106.6,9.7,106.6,9.7,106.7,9.8
						C106.7,9.7,106.7,9.7,106.7,9.8z"/>
					<path class="st4" d="M115.1,17.6C115.1,17.7,115.1,17.7,115.1,17.6l-2.9,0c0,0,0,0,0-0.1v-0.2c0-0.1,0-0.1,0.1-0.1h0.7
						c0.1,0,0.1,0,0.1-0.1c0,0,0,0,0,0c0-0.1-0.2-0.5-0.4-1.1c-0.2-0.7-0.4-1.1-0.4-1.1c0-0.1-0.1-0.1-0.1-0.1l-2.8,0
						c-0.1,0-0.1,0-0.1,0.1c-0.2,0.6-0.4,1-0.5,1.5c-0.1,0.3-0.2,0.5-0.2,0.8c0,0.1,0,0.2,0.1,0.2h0.9c0.1,0,0.1,0,0.1,0.1v0.2
						c0,0,0,0.1-0.1,0.1H107c0,0-0.1,0-0.1-0.1v-0.3c0,0,0-0.1,0.1-0.1h0.4c0.1,0,0.2-0.1,0.3-0.4c0.5-1.1,0.9-2.2,1.4-3.3
						c0.9-2,1.4-3.2,1.5-3.4c0.1-0.2,0.2-0.4,0.3-0.6c0.1-0.1,0.1-0.2,0.1-0.2c0.2,0,0.4-0.1,0.7-0.1c0.1,0,0.1,0,0.1,0
						c0,0,0.1,0,0.1,0.1s0,0.1,0,0.1c0,0,0,0.1-0.1,0.1c0,0-0.1,0.1-0.1,0.1c-0.1,0.1-0.1,0.2-0.1,0.3s0,0.2,0.1,0.4
						c0.1,0.3,0.3,0.8,0.6,1.6c0.1,0.1,0.3,0.8,0.7,2.1c0.4,1.1,0.8,2,1.1,2.6c0.2,0.4,0.4,0.7,0.4,0.7h0.4c0,0,0.1,0,0.1,0.1
						L115.1,17.6L115.1,17.6z M111.9,14.3c-0.1-0.1-0.2-0.6-0.6-1.5c-0.1-0.4-0.3-0.9-0.4-1.4c0-0.1-0.1-0.2-0.1-0.2
						c-0.1,0-0.1,0.1-0.2,0.2c-0.2,0.4-0.3,0.8-0.5,1.2c-0.2,0.5-0.5,1.1-0.7,1.7c0,0.1,0,0.1,0,0.1c0,0,0,0,0.1,0L111.9,14.3
						C111.9,14.4,111.9,14.4,111.9,14.3z"/>
					<path class="st4" d="M122.2,16.7c0,0.1-0.1,0.2-0.2,0.5c0,0-0.1,0.1-0.2,0.4c0,0.1-0.1,0.1-0.1,0.1l-5.9,0
						c-0.1,0-0.1,0-0.1-0.1v-0.3c0,0,0-0.1,0.1-0.1h0.8c0.1,0,0.1,0,0.1-0.1c0,0,0-0.1,0-0.5c0-0.3,0-0.6,0-0.8c0-0.4,0-1.1,0-2.4
						s0-1.9,0-2.2c0-0.8-0.1-1.3-0.2-1.3h-0.5c-0.1,0-0.1,0-0.1-0.1V9.8c0-0.1,0-0.1,0.1-0.1l3.3,0c0,0,0.1,0,0.1,0.1v0.3
						c0,0,0,0.1-0.1,0.1H118c-0.1,0-0.1,0-0.1,0.1s0,1-0.1,2.8c0,1.7,0,2.7,0,2.9c0,0.9,0.1,1.4,0.3,1.4c0.9,0,1.7,0,2.1-0.1
						c0.6,0,1.1-0.2,1.7-0.5C122,16.7,122.1,16.7,122.2,16.7C122.1,16.7,122.2,16.7,122.2,16.7z"/>
					<path class="st4" d="M129.1,16.7c0,0.1-0.1,0.2-0.2,0.5c0,0-0.1,0.1-0.2,0.4c0,0.1-0.1,0.1-0.1,0.1l-5.9,0
						c-0.1,0-0.1,0-0.1-0.1v-0.3c0,0,0-0.1,0.1-0.1h0.8c0.1,0,0.1,0,0.1-0.1c0,0,0-0.1,0-0.5c0-0.3,0-0.6,0-0.8c0-0.4,0-1.1,0-2.4
						s0-1.9,0-2.2c0-0.8-0.1-1.3-0.2-1.3h-0.5c-0.1,0-0.1,0-0.1-0.1V9.8c0-0.1,0-0.1,0.1-0.1l3.3,0c0,0,0.1,0,0.1,0.1v0.3
						c0,0,0,0.1-0.1,0.1h-1.1c-0.1,0-0.1,0-0.1,0.1s0,1-0.1,2.8c0,1.7,0,2.7,0,2.9c0,0.9,0.1,1.4,0.3,1.4c0.9,0,1.7,0,2.1-0.1
						c0.6,0,1.1-0.2,1.6-0.5C128.9,16.7,129,16.7,129.1,16.7C129.1,16.7,129.1,16.7,129.1,16.7z"/>
					<path class="st4" d="M132.8,17.7C132.8,17.7,132.8,17.7,132.8,17.7l-3.1,0c-0.1,0-0.1,0-0.1-0.1v-0.3c0,0,0-0.1,0.1-0.1h0.7
						c0.1,0,0.1-0.1,0.1-0.2c0,0,0-1,0-3c0-1.9,0-2.9,0-3c0-0.7-0.1-1.1-0.2-1.1h-0.6c-0.1,0-0.1,0-0.1-0.1V9.8c0,0,0-0.1,0.1-0.1
						l3,0c0,0,0.1,0,0.1,0.1v0.3c0,0,0,0.1-0.1,0.1h-0.7c-0.1,0-0.1,0-0.1,0.1c0,0,0,0.9,0,2.6s0,2.7,0,2.8c0,0.6,0,0.9,0,1
						c0,0.5,0.1,0.7,0.2,0.7h0.7c0,0,0.1,0,0.1,0L132.8,17.7L132.8,17.7z"/>
					<path class="st4" d="M141.4,16.7c0,0,0,0-0.1,0.1c-0.3,0.3-0.8,0.5-1.5,0.8c-0.5,0.2-1.2,0.2-2.1,0.3c-0.4,0-0.9,0-1.4-0.2
						c-0.7-0.2-1.2-0.5-1.6-0.8c-0.7-0.6-1-1.6-1-2.8c0-0.7,0.2-1.4,0.6-2.1c0.3-0.6,0.8-1.1,1.4-1.4c0.8-0.5,1.8-0.8,2.8-0.8
						c0.6,0,1.2,0.1,1.8,0.2c0.3,0.1,0.6,0.2,0.9,0.3c0,0,0,0,0,0.1c-0.1,0.3-0.1,0.7-0.1,1c0,0.1-0.1,0.3-0.1,0.6
						c0,0.1,0,0.1-0.1,0.1c-0.1,0-0.1,0-0.1-0.1c0-0.1,0-0.1,0-0.3c-0.1-0.1-0.1-0.2-0.1-0.3c-0.1-0.1-0.1-0.2-0.2-0.3
						c-0.6-0.5-1.2-0.8-1.9-0.8c-1,0-1.8,0.3-2.4,0.9c-0.7,0.7-1,1.6-1,2.7c0,1.2,0.3,2.1,1,2.8c0.5,0.5,1.2,0.7,2.2,0.7
						c0.5,0,0.9-0.1,1.4-0.3c0.3-0.1,0.6-0.3,0.8-0.6c0.1-0.1,0.1-0.2,0.2-0.4c0.1-0.2,0.1-0.3,0.1-0.4c0-0.1,0-0.1,0.1-0.1
						c0,0,0.1,0,0.1,0c0,0.1,0.1,0.2,0.1,0.4C141.2,16.1,141.3,16.3,141.4,16.7z"/>
					<path class="st4" d="M147.5,15.6c0,0.6-0.2,1.1-0.7,1.5c-0.3,0.2-0.6,0.4-0.9,0.5c-0.3,0.1-0.8,0.1-1.3,0.1
						c-0.8,0-1.5-0.2-2.2-0.5c-0.1,0-0.1-0.1-0.1-0.2c0,0,0-0.3,0-0.7c0-0.5,0-0.7,0-0.7c0,0,0-0.1,0.1-0.1h0.2c0.1,0,0.1,0,0.1,0.1
						c0,0.1,0,0.3,0,0.4c0.1,0.4,0.2,0.7,0.6,0.9c0.3,0.3,0.7,0.4,1.3,0.4c0.7,0,1.2-0.2,1.5-0.7c0.1-0.2,0.2-0.5,0.2-0.8
						c0-0.3-0.1-0.6-0.3-0.8c-0.2-0.2-0.6-0.5-1.3-0.7c-0.7-0.2-1.3-0.5-1.7-0.9c-0.4-0.4-0.6-0.9-0.6-1.6c0-0.7,0.3-1.2,0.9-1.7
						c0.4-0.4,1-0.5,1.8-0.5c0.8,0,1.4,0.2,1.9,0.5c0.1,0.1,0.1,0.1,0.1,0.2c0,0.3,0.1,0.7,0.1,1.2c0,0.1,0,0.1-0.1,0.1h-0.3
						c0,0-0.1,0-0.1-0.1c0-0.1-0.1-0.3-0.1-0.4c-0.1-0.2-0.2-0.4-0.4-0.6c-0.4-0.3-0.8-0.4-1.4-0.4c-0.4,0-0.8,0.1-1,0.3
						c-0.3,0.3-0.4,0.6-0.4,1c0,0.3,0.1,0.6,0.4,0.8c0.1,0.1,0.6,0.4,1.4,0.7c0.5,0.2,0.8,0.3,1,0.4c0.4,0.2,0.6,0.4,0.9,0.6
						C147.3,14.5,147.5,15,147.5,15.6z"/>
				</g>
			</g>
		</g>
	</g>
</g>
</svg>
