<?xml version="1.0" encoding="utf-8"?>
<!-- Generator: Adobe Illustrator 26.5.0, SVG Export Plug-In . SVG Version: 6.00 Build 0)  -->
<svg version="1.1" id="Layer_1" xmlns="http://www.w3.org/2000/svg" xmlns:xlink="http://www.w3.org/1999/xlink" x="0px" y="0px"
	 viewBox="0 0 50 50" style="enable-background:new 0 0 50 50;" xml:space="preserve">
<style type="text/css">
	.st0{fill:#EA7923;}
	.st1{fill:#282560;}
	.st2{fill:none;stroke:#272660;stroke-width:0.8563;stroke-miterlimit:10;}
</style>
<g>
	<path class="st0" d="M43.14,37.56c-0.04,0.06-0.71,1.09-1.76,2.16c-0.53,0.56-1.07,1.09-1.62,1.59c-0.06,0.05-0.11,0.11-0.17,0.16
		l0-0.01c-4.25,3.74-9.35,5.61-15.23,5.47C13.68,46.68,5.3,39.7,2.84,29.46C0.9,21.41,4.35,13.36,11.48,9.3
		c6.77-3.86,15.09-3.04,21.14,1.96c0.29,0.24,0.57,0.49,0.85,0.75c0.18,0.17,0.37,0.33,0.55,0.49c0,0,0,0,0,0l0,0l0.43,0.48
		l-1.1-0.68c-0.39-0.27-0.79-0.51-1.19-0.74c-4.27-2.39-8.86-2.3-13.58-0.11c-5.51,2.56-8.47,7.03-8.55,13.11
		c-0.1,7.97,3.55,13.92,10.76,17.31c6.64,3.12,13.09,2.54,18.98-1.58l0.89-0.65c0.12-0.09,0.24-0.18,0.36-0.28L43.14,37.56z"/>
	<path class="st1" d="M6.12,12.4c0.04-0.06,0.72-1.09,1.8-2.16C8.45,9.69,9,9.16,9.57,8.67c0.06-0.05,0.11-0.11,0.17-0.16l0,0.01
		c4.33-3.72,9.53-5.58,15.51-5.43c10.86,0.28,19.38,7.25,21.87,17.48c1.95,8.03-1.57,16.06-8.83,20.1c-6.9,3.84-15.36,3.01-21.51-2
		c-0.29-0.24-0.58-0.49-0.87-0.75c-0.18-0.17-0.37-0.33-0.56-0.49c0,0,0,0,0,0l0,0l-0.44-0.48l1.12,0.68
		c0.4,0.27,0.8,0.51,1.21,0.74c4.34,2.4,9.02,2.31,13.82,0.13c5.61-2.54,8.63-7,8.72-13.07c0.12-7.95-3.59-13.9-10.92-17.3
		C22.1,5,15.54,5.57,9.54,9.66l-0.9,0.65c-0.12,0.09-0.24,0.18-0.37,0.28L6.12,12.4z"/>
	<g>
		<polyline class="st2" points="23.54,26.38 19.13,30.79 13.04,24.7 19.13,18.62 25.22,24.7 		"/>
		<polyline class="st2" points="26.43,26.52 30.84,30.93 36.92,24.84 30.84,18.76 24.75,24.84 		"/>
	</g>
</g>
</svg>
